<svg xmlns="http://www.w3.org/2000/svg" viewBox="0 0 512 512" width="512" height="512">
  <defs>
    <linearGradient id="bg" x1="96" y1="48" x2="416" y2="464" gradientUnits="userSpaceOnUse">
      <stop offset="0" stop-color="#60a5fa" />
      <stop offset="0.55" stop-color="#2563eb" />
      <stop offset="1" stop-color="#1e3a8a" />
    </linearGradient>
    <linearGradient id="panel" x1="109" y1="114" x2="412" y2="409" gradientUnits="userSpaceOnUse">
      <stop offset="0" stop-color="#1c1c23" />
      <stop offset="1" stop-color="#0a0a0c" />
    </linearGradient>
    <linearGradient id="tab" x1="105" y1="146" x2="204" y2="195" gradientUnits="userSpaceOnUse">
      <stop offset="0" stop-color="#93c5fd" />
      <stop offset="1" stop-color="#3b82f6" />
    </linearGradient>
    <linearGradient id="prompt" x1="129" y1="227" x2="192" y2="320" gradientUnits="userSpaceOnUse">
      <stop offset="0" stop-color="#6ee7b7" />
      <stop offset="1" stop-color="#34d399" />
    </linearGradient>
    <filter
      id="shadow"
      x="20"
      y="41"
      width="472"
      height="418"
      color-interpolation-filters="sRGB"
      filterUnits="userSpaceOnUse"
    >
      <feDropShadow dx="0" dy="20" stdDeviation="20" flood-color="#000000" flood-opacity="0.45" />
      <feDropShadow dx="0" dy="0" stdDeviation="16" flood-color="#3b82f6" flood-opacity="0.22" />
    </filter>
  </defs>

  <rect width="512" height="512" rx="112" fill="url(#bg)" />

  <g filter="url(#shadow)">
    <rect
      x="105"
      y="77"
      width="302"
      height="61"
      rx="31"
      fill="#1f2940"
      stroke="#3a4f7a"
      stroke-width="7"
      opacity="0.85"
    />
    <rect
      x="81"
      y="105"
      width="349"
      height="61"
      rx="31"
      fill="#172033"
      stroke="#3a4f7a"
      stroke-width="7"
      opacity="0.95"
    />
    <rect
      x="56"
      y="133"
      width="401"
      height="274"
      rx="68"
      fill="url(#panel)"
      stroke="#3a4f7a"
      stroke-width="9"
    />

    <rect x="105" y="178" width="99" height="31" rx="15" fill="url(#tab)" />
    <rect x="225" y="178" width="78" height="31" rx="15" fill="#3f4456" />
    <rect x="324" y="178" width="54" height="31" rx="15" fill="#3f4456" opacity="0.7" />

    <path
      d="M136 249L189 291L136 334"
      fill="none"
      stroke="url(#prompt)"
      stroke-linecap="round"
      stroke-linejoin="round"
      stroke-width="35"
    />
    <rect x="219" y="275" width="132" height="33" rx="17" fill="#fafafa" />
  </g>
</svg>
